<svg width="301" height="276" viewBox="0 0 301 276" fill="none" xmlns="http://www.w3.org/2000/svg">
<path d="M277.192 57.882H218.332C218.332 57.882 224.2 41.94 233.152 41.94C242.104 41.94 244.948 52.944 244.948 52.944C244.948 52.944 251.002 46.944 255.982 46.944C260.962 46.944 265.288 54.84 265.288 54.84C265.288 54.84 272.32 50.616 277.192 57.882Z" fill="#EBEBEB"/>
<path d="M257.106 175.566H229.602C229.602 175.566 235.752 166.662 240.594 166.662C245.436 166.662 246.864 172.596 246.864 172.596C246.864 172.596 250.284 169.824 253.464 170.322C256.644 170.82 257.106 175.566 257.106 175.566Z" fill="#EBEBEB"/>
<path d="M78.4006 157.14H24.8086C24.8086 157.14 32.1466 140.76 39.9946 139.74C47.8426 138.72 51.5986 151.908 51.5986 151.908C51.5986 151.908 56.6566 147.246 60.6406 147.246C64.6246 147.246 67.6906 153.39 67.6906 153.39C67.6906 153.39 75.6526 149.178 78.4006 157.14Z" fill="#EBEBEB"/>
<path d="M123.737 263.742H87.5508C87.5508 263.742 93.7668 251.874 100.511 251.7C107.255 251.526 110.801 260.7 110.801 260.7C110.801 260.7 121.289 252.264 123.737 263.742Z" fill="#EBEBEB"/>
<path d="M205.637 44.4H181.211C181.211 44.4 185.411 36.39 189.959 36.276C194.507 36.162 196.901 42.336 196.901 42.336C196.901 42.336 203.981 36.642 205.637 44.4Z" fill="#EBEBEB"/>
<path d="M75.2932 137.508H50.8672C50.8672 137.508 55.0672 129.498 59.6152 129.384C64.1632 129.27 66.5572 135.444 66.5572 135.444C66.5572 135.444 73.6432 129.762 75.2932 137.508Z" fill="#EBEBEB"/>
<path d="M238.942 150C238.971 168.579 233.087 186.685 222.142 201.696C213.297 213.872 201.476 223.574 187.81 229.874C174.144 236.175 159.09 238.864 144.088 237.683C129.086 236.503 114.637 231.492 102.125 223.132C89.6124 214.771 79.4546 203.339 72.6232 189.931C65.7918 176.522 62.5153 161.585 63.1071 146.548C63.6989 131.511 68.1392 116.877 76.0033 104.047C83.8674 91.2163 94.8922 80.6185 108.023 73.2669C121.154 65.9154 135.951 62.0561 151 62.0583C153.4 62.0583 155.8 62.1543 158.164 62.3463C170.23 63.326 181.963 66.7893 192.626 72.5187C203.29 78.2481 212.655 86.12 220.132 95.6403C222.101 98.1397 223.933 100.743 225.622 103.44C234.352 117.399 238.968 133.537 238.942 150Z" fill="#7085FB"/>
<g opacity="0.1">
<path d="M169.99 191.508C168.88 194.466 170.728 194.586 170.854 195.816C170.98 197.046 170.854 199.416 167.254 202.962C163.654 206.508 157.774 205.794 156.538 207.276C155.302 208.758 153.214 215.034 150.262 217.128C147.31 219.222 146.812 217.986 142.624 218.85C138.436 219.714 135.232 225.132 134.002 227.718C132.772 230.304 134.248 234.618 131.29 234.738C128.332 234.858 127 228.456 124.294 225C121.588 221.544 120.694 218.472 119.86 214.404C119.026 210.336 120.352 201.84 119.86 198.516C119.368 195.192 110.5 189.276 107.296 185.214C104.092 181.152 99.6642 173.022 99.9102 170.31C100.287 167.686 101.597 165.285 103.6 163.548C105.082 162.438 104.464 161.826 104.71 160.836C104.956 159.846 106.192 159.606 106.438 158.376C106.684 157.146 105.694 153.45 104.464 152.832C103.234 152.214 102.37 154.308 101.632 153.942C100.894 153.576 98.6742 150.984 97.8162 150.738C96.9582 150.492 97.2162 152.34 95.9682 150C94.7202 147.66 94.1202 141.75 93.1362 140.76C92.1522 139.77 91.4082 142.488 89.0682 140.76C86.7282 139.032 85.7442 135.714 84.7602 135.222C83.7762 134.73 82.4202 135.342 81.4062 133.374C80.3922 131.406 82.2942 127.83 81.4062 128.202C80.5182 128.574 78.5982 131.4 78.1062 128.694C77.6142 125.988 80.5722 116.868 80.0802 111.942C79.5882 107.016 81.2802 101.844 84.7602 97.6562C84.7602 97.6562 85.2522 94.9442 85.7442 93.2222C86.2362 91.5002 96.8262 84.6002 98.0622 82.6262C98.5722 81.8042 98.7462 80.5142 98.9322 79.1222C114.015 68.008 132.265 62.0268 151 62.0582C153.4 62.0582 155.8 62.1542 158.164 62.3462L158.41 62.6762C159.478 64.0262 160.63 64.8902 163.75 66.0422C166.87 67.1942 167.608 68.6702 166.954 69.9002C166.3 71.1302 165.226 71.3762 163.996 71.4602C162.766 71.5442 161.596 70.8602 160.3 71.7062C159.004 72.5522 157.672 76.9622 155.95 77.2082C154.228 77.4542 151.186 73.2662 150.55 72.0362C149.914 70.8062 152.026 68.1722 151.018 66.9422C150.01 65.7122 148.252 65.9582 145.456 65.7422C142.66 65.5262 136.18 66.5642 136.456 67.6322C136.732 68.7002 145.978 67.4642 146.224 69.6002C146.47 71.7362 139.414 75.3482 138.178 75.0002C136.942 74.6522 135.304 72.5402 133.498 72.2942C131.692 72.0482 130.21 73.4942 129.076 73.6922C127.942 73.8902 126.604 72.4562 124.876 72.7862C123.148 73.1162 122.74 74.5862 121.84 75.1862C120.94 75.7862 118.798 75.7862 118.552 77.0702C118.306 78.3542 121.264 79.1282 122.002 79.9502C122.74 80.7722 121.096 83.5502 121.84 84.1502C122.584 84.7502 127.174 80.7002 128.326 79.7162C129.478 78.7322 130.462 74.4602 132.922 74.5382C135.382 74.6162 136.21 78.8102 137.032 79.2182C137.854 79.6262 139.66 78.2342 142.366 78.8102C145.072 79.3862 146.962 85.2962 147.454 87.1022C147.946 88.9082 149.098 90.7022 148.114 91.4582C147.13 92.2142 142.714 90.9662 142.114 89.8142C141.514 88.6622 145.072 86.9402 144.826 86.5322C144.58 86.1242 142.522 85.5422 141.46 86.1842C140.398 86.8262 139.9 88.1702 138.748 88.5002C137.596 88.8302 134.548 85.3802 133.738 86.3642C132.928 87.3482 134.56 90.4682 135.382 91.2122C136.204 91.9562 139.24 92.3582 139.486 93.1802C139.732 94.0022 137.434 95.8082 134.644 95.6462C131.854 95.4842 129.55 93.3422 128.482 94.2482C127.414 95.1542 127.99 97.5302 127.252 98.3522C126.514 99.1742 122.488 98.5982 120.52 100.752C118.552 102.906 117.646 106.092 115.672 107.892C113.698 109.692 112.798 107.4 110.17 109.95C107.542 112.5 107.134 118.158 107.05 120.15C106.966 122.142 107.05 123.678 106.396 123.432C105.742 123.186 104.836 121.464 104.596 120.396C104.356 119.328 105.196 117.522 105.196 116.862C105.196 116.202 101.416 112.842 99.1962 112.512C96.9762 112.182 94.9962 113.988 93.3702 115.302C91.7442 116.616 88.7742 116.37 87.7062 117.438C86.6382 118.506 85.8162 127.95 86.6382 130.164C87.4602 132.378 88.5282 132.384 91.1562 131.232C93.7842 130.08 92.3022 127.866 93.8622 128.358C94.5672 128.619 95.1754 129.089 95.6046 129.706C96.0338 130.323 96.2633 131.057 96.2622 131.808C96.2622 133.122 93.1422 136.242 93.5502 137.148C93.9582 138.054 96.6702 136.98 97.9842 137.394C99.2982 137.808 99.9582 138.594 99.5442 141.99C99.1302 145.386 99.3822 147.99 101.344 149.094C103.306 150.198 104.428 147.492 105.286 147.864C106.144 148.236 107.38 150.204 108.616 150.078C109.852 149.952 109.216 148.848 111.568 148.11C113.92 147.372 113.05 146.874 113.542 145.398C114.034 143.922 115.51 142.686 117.112 143.424C118.714 144.162 117.604 145.272 117.712 146.508C117.82 147.744 120.664 147.864 122.884 148.602C125.104 149.34 126.334 148.602 130.768 150.078C135.202 151.554 135.448 155.988 137.296 156.732C139.144 157.476 145.3 156.234 149.734 159.438C154.168 162.642 152.938 168.552 155.134 170.28C157.33 172.008 165.604 174.342 168.808 174.96C172.012 175.578 172.504 173.358 175.09 173.97C177.676 174.582 179.152 175.326 180.016 178.902C180.724 181.962 171.1 188.55 169.99 191.508Z" fill="black"/>
<path d="M103.811 128.526C103.889 129.222 105.941 129.516 108.407 130.926C110.873 132.336 111.773 136.428 113.087 136.326C114.401 136.224 113.993 134.358 114.485 133.866C114.977 133.374 115.799 132.306 114.485 131.238C113.171 130.17 111.893 127.872 109.493 127.542C107.093 127.212 106.685 126.228 105.617 126.342C105.347 126.345 105.081 126.406 104.837 126.523C104.594 126.639 104.378 126.807 104.206 127.015C104.034 127.223 103.91 127.466 103.842 127.727C103.773 127.988 103.763 128.261 103.811 128.526Z" fill="black"/>
<path d="M117.358 135.426C116.992 136.434 117.358 137.148 119.986 137.826C122.614 138.504 125.074 137.166 124.252 136.626C123.43 136.086 122.2 136.338 122.692 135.426C123.184 134.514 123.016 133.206 120.892 133.452C118.768 133.698 117.682 134.52 117.358 135.426Z" fill="black"/>
<path d="M126.55 135.708C125.656 135.834 125.158 137.394 126.058 138.384C126.958 139.374 126.964 139.2 128.032 138.384C129.1 137.568 130.738 137.184 130.33 136.332C129.922 135.48 127.456 135.6 126.55 135.708Z" fill="black"/>
<path d="M133.696 139.062C134.098 137.826 136.162 139.062 137.062 140.352C137.962 141.642 137.554 143.556 137.062 144.948C136.57 146.34 136.24 147.99 135.094 147.348C133.948 146.706 135.172 144.72 135.01 143.574C134.848 142.428 133.366 140.07 133.696 139.062Z" fill="black"/>
<path d="M169.082 70.5542C168.656 71.5862 170.642 71.9522 171.794 72.6122C172.946 73.2722 173.846 73.6802 174.506 72.6122C175.166 71.5442 174.26 70.3082 173.354 70.0622C172.448 69.8162 169.496 69.6002 169.082 70.5542Z" fill="black"/>
<path d="M184.601 80.1662C185.357 80.9642 186.653 80.8202 187.559 81.9662C188.465 83.1122 188.129 85.0862 189.281 85.6622C190.433 86.2382 191.255 85.6622 191.333 84.8402C191.411 84.0182 189.689 81.9662 189.857 81.5522C190.025 81.1382 192.257 82.1522 192.731 83.3522C193.205 84.5522 192.239 86.3102 193.385 86.6402C194.531 86.9702 194.291 85.4882 194.783 85.1582C195.275 84.8282 196.343 84.9962 196.259 84.0122C196.175 83.0282 194.867 80.8922 193.799 80.1542C192.731 79.4162 191.909 78.5942 190.103 78.1802C188.297 77.7662 186.569 78.1022 185.669 78.8402C184.769 79.5782 184.139 79.6742 184.601 80.1662Z" fill="black"/>
<path d="M220.133 95.6402C220.081 95.9724 219.918 96.2772 219.671 96.5042C217.943 97.7042 215.891 93.4682 213.509 92.6462C211.127 91.8242 210.065 88.7882 209.567 89.4422C209.069 90.0962 209.237 91.0022 208.499 92.0702C207.761 93.1382 206.699 92.8922 206.201 94.9442C205.703 96.9962 208.499 100.776 207.845 102.006C207.191 103.236 206.369 102.828 205.049 102.744C203.729 102.66 203.987 103.812 202.265 103.344C200.543 102.876 202.013 100.716 199.307 98.1722C196.601 95.6282 195.707 95.1362 196.271 93.9722C196.835 92.8082 196.019 91.1822 197.255 91.0142C198.491 90.8462 199.469 92.6582 200.291 93.1502C201.113 93.6422 202.181 92.1662 202.259 90.8522C202.337 89.5382 199.385 87.7322 198.317 86.7122C197.249 85.6922 197.171 81.9842 197.579 81.2402C197.987 80.4962 199.223 80.7482 199.553 78.9422C199.745 77.8802 198.065 76.1102 196.643 74.8262C205.654 80.3041 213.61 87.3537 220.133 95.6402Z" fill="black"/>
<path d="M232.396 169.254C232.642 166.626 231.328 166.464 232.642 161.622C233.956 156.78 231.244 151.602 230.242 150.534C229.24 149.466 227.122 149.796 225.4 150.864C223.678 151.932 224.902 152.754 223.756 153.162C222.61 153.57 221.458 152.916 220.39 153C219.322 153.084 218.338 155.79 216.034 155.706C213.73 155.622 212.26 152.34 210.538 150C208.816 147.66 205.282 146.184 204.13 143.31C202.978 140.436 205.198 136.002 204.73 132.636C204.262 129.27 202.018 130.002 201.61 128.118C201.202 126.234 201.94 127.134 202.51 125.322C203.08 123.51 201.856 122.532 203.008 119.412C204.16 116.292 206.206 114.732 205.714 113.34C205.222 111.948 203.662 109.644 203.578 108.006C203.494 106.368 205.138 106.44 208.258 104.142C211.378 101.844 212.2 102 214.6 102.828C216.309 103.462 218.067 103.955 219.856 104.304C221.254 104.55 223.144 108.162 223.714 108C224.284 107.838 224.374 106.77 224.62 105.21C224.776 104.53 225.134 103.914 225.646 103.44C234.911 118.304 239.53 135.595 238.911 153.099C238.292 170.603 232.464 187.524 222.172 201.696C230.524 188.916 232.15 171.882 232.396 169.254Z" fill="black"/>
</g>
<path opacity="0.1" d="M219.129 205.608C209.747 217.103 197.61 226.037 183.846 231.578C170.082 237.12 155.14 239.089 140.411 237.302C125.681 235.516 111.643 230.031 99.6038 221.36C87.5642 212.688 77.9143 201.111 71.5525 187.707C65.1907 174.303 62.3238 159.507 63.2187 144.696C64.1136 129.886 68.7412 115.543 76.6706 103.002C84.6001 90.461 95.5737 80.1303 108.57 72.9715C121.566 65.8127 136.162 62.0584 150.999 62.0582C153.399 62.0582 155.79 62.1542 158.17 62.3462C158.824 62.3942 159.477 62.4602 160.125 62.5262C147.695 63.8783 135.75 68.1044 125.235 74.8701C114.72 81.6359 105.923 90.7556 99.5411 101.508C93.1592 112.26 89.3668 124.35 88.464 136.821C87.5612 149.292 89.5728 161.803 94.3397 173.362C99.1065 184.921 106.498 195.213 115.929 203.423C125.36 211.632 136.572 217.535 148.678 220.663C160.784 223.791 173.452 224.059 185.68 221.447C197.907 218.834 209.359 213.411 219.129 205.608Z" fill="black"/>
<path opacity="0.3" d="M238.94 150C238.97 168.579 233.086 186.684 222.14 201.696C213.887 213.024 203.06 222.227 190.55 228.546C201.446 222.315 210.9 213.847 218.288 203.7C229.625 188.129 235.562 169.28 235.196 150.023C234.83 130.765 228.181 112.155 216.26 97.0262C209.698 88.6921 201.698 81.5985 192.638 76.0802C180.894 68.9313 167.637 64.6363 153.932 63.5402C151.556 63.3482 149.156 63.2522 146.732 63.2522C139.575 63.2477 132.443 64.1079 125.492 65.8142C133.761 63.3162 142.354 62.0506 150.992 62.0582C153.392 62.0582 155.782 62.1542 158.162 62.3462C171.785 63.4367 184.962 67.7071 196.634 74.8142C205.645 80.2973 213.601 87.3508 220.124 95.6402C232.328 111.13 238.956 130.28 238.94 150Z" fill="white"/>
<path d="M109.742 117C114.027 117.184 118.265 116.051 121.886 113.754C123.148 112.953 124.337 112.041 125.438 111.03C124.352 117.678 114.95 121.368 109.742 117Z" fill="#0F3CB1"/>
<path d="M192.255 117C187.97 117.184 183.732 116.051 180.111 113.754C178.848 112.953 177.66 112.041 176.559 111.03C177.645 117.678 187.047 121.368 192.255 117Z" fill="#0F3CB1"/>
<path d="M191.933 125.118C191.723 129.282 190.133 133.962 186.437 136.428C182.417 139.062 176.867 137.784 173.975 134.112C172.152 131.903 171.018 129.208 170.711 126.36C171.873 128.76 173.449 130.935 175.367 132.786C177.965 135.306 182.027 136.266 185.237 134.46C188.621 132.456 190.301 128.736 191.933 125.118Z" fill="#0F3CB1"/>
<path d="M131.288 126.36C130.826 130.524 128.486 134.934 124.508 136.896C122.401 137.916 119.986 138.102 117.747 137.417C115.509 136.731 113.612 135.225 112.436 133.2C110.976 130.754 110.161 127.977 110.066 125.13C111.055 127.616 112.377 129.955 113.996 132.084C115.062 133.535 116.581 134.59 118.313 135.082C120.044 135.574 121.891 135.476 123.56 134.802C127.16 133.236 129.428 129.9 131.288 126.372V126.36Z" fill="#0F3CB1"/>
<path d="M167.32 144.912C160.12 139.374 151.012 135.48 142.39 140.01C139.635 141.449 137.049 143.19 134.68 145.2C136.319 142.375 138.575 139.957 141.28 138.126C150.142 131.97 161.896 136.386 167.308 144.936L167.32 144.912Z" fill="#0F3CB1"/>
</svg>
